<?xml version="1.0" encoding="UTF-8"?>
<svg width="140px" height="37px" viewBox="0 0 140 37" version="1.1" xmlns="http://www.w3.org/2000/svg" xmlns:xlink="http://www.w3.org/1999/xlink">
    <!-- Generator: Sketch 60.1 (88133) - https://sketch.com -->
    <title>Group 25</title>
    <desc>Created with Sketch.</desc>
    <defs>
        <polygon id="path-1" points="0 0.0586724512 8.32098048 0.0586724512 8.32098048 10.845961 0 10.845961"></polygon>
    </defs>
    <g id="Tonic" stroke="none" stroke-width="1" fill="none" fill-rule="evenodd">
        <g id="HOME" transform="translate(-120.000000, -66.000000)">
            <g id="Group-38">
                <g id="Skinny-Nav---Logged-out---Community" transform="translate(0.000000, 39.000000)">
                    <g id="Skinny-Nav---Logged-out">
                        <g id="Logged-Out">
                            <g id="Group-8">
                                <g id="Group-25" transform="translate(120.000000, 27.000000)">
                                    <path d="M59.6965466,6.85760087 C60.4591063,6.18948807 60.6753319,5.96111497 61.6677831,5.21525813 C59.7791497,3.79734056 57.4079566,2.12462907 57.4079566,2.12462907 C57.4079566,2.12462907 55.7130759,8.5612885 55.5931193,9.97647289 C55.4755922,11.3746508 56.4741171,16.0648026 61.6270889,14.3353015 C61.5766768,14.3176876 61.5280868,14.3049328 61.4773709,14.2851931 C56.4306898,12.3188156 58.3575879,8.0307462 59.6965466,6.85760087" id="Fill-1" fill="#CC19FF"></path>
                                    <path d="M68.4421203,9.9761692 C68.4396833,8.7210282 66.6281866,2.12432538 66.6281866,2.12432538 C66.6281866,2.12432538 61.2301388,6.00393492 60.1921345,6.97391323 C58.9983384,8.08935792 56.8889241,12.3169935 62.2083167,14.2684902 C67.5286204,16.220898 68.4451497,11.5954317 68.4421203,9.9761692" id="Fill-3" fill="#CC19FF"></path>
                                    <polygon id="Fill-5" fill="#CC19FF" points="64.4722169 3.05452061 62.1080087 3.03687636e-05 59.6268807 3.1726551 61.9625423 4.9164295"></polygon>
                                    <line x1="62.1572061" y1="15.9961085" x2="62.1572061" y2="36.153679" id="Stroke-7" stroke="#CC39FF"></line>
                                    <g id="Group-11" transform="translate(0.000000, 20.969328)">
                                        <mask id="mask-2" fill="white">
                                            <use xlink:href="#path-1"></use>
                                        </mask>
                                        <g id="Clip-10"></g>
                                        <polygon id="Fill-9" fill="#3C3660" mask="url(#mask-2)" points="3.75989588 0.798759219 -6.07375271e-05 0.798759219 -6.07375271e-05 0.0586724512 8.32098048 0.0586724512 8.32098048 0.798759219 4.56132755 0.798759219 4.56132755 10.845961 3.75989588 10.845961"></polygon>
                                    </g>
                                    <path d="M21.140243,26.4524078 L21.140243,26.4214317 C21.140243,23.7553579 19.1984642,21.5675922 16.5326941,21.5675922 C13.8669241,21.5675922 11.9561215,23.7246855 11.9561215,26.3907592 L11.9561215,26.4217354 C11.9561215,29.0875054 13.8979002,31.2755748 16.5636703,31.2755748 C19.2294403,31.2755748 21.140243,29.1181779 21.140243,26.4524078 M11.1240174,26.4524078 L11.1240174,26.4214317 C11.1240174,23.4783948 13.2969024,20.8429935 16.5636703,20.8429935 C19.8304382,20.8429935 21.9723471,23.447115 21.9723471,26.3907592 L21.9723471,26.4217354 C21.9723471,29.3647722 19.7997657,32.0001735 16.5329978,32.0001735 C13.2662299,32.0001735 11.1240174,29.3957484 11.1240174,26.4524078" id="Fill-12" fill="#3C3660"></path>
                                    <polygon id="Fill-14" fill="#3C3660" points="26.3964989 21.0281518 27.1514664 21.0281518 34.594243 30.4127072 34.594243 21.0281518 35.3646985 21.0281518 35.3646985 31.8154403 34.7637007 31.8154403 27.1669544 22.2298438 27.1669544 31.8151367 26.3964989 31.8151367"></polygon>
                                    <polygon id="Fill-16" fill="#3C3660" points="40.3746638 31.8155315 41.1760954 31.8155315 41.1760954 21.028243 40.3746638 21.028243"></polygon>
                                    <path d="M45.7067505,26.4524078 L45.7067505,26.4214317 C45.7067505,23.370282 47.9874447,20.8429935 51.1005466,20.8429935 C53.0265336,20.8429935 54.1820651,21.5521041 55.2920434,22.569154 L54.721718,23.1549675 C53.7815011,22.2451193 52.7031063,21.5675922 51.0850586,21.5675922 C48.4961215,21.5675922 46.5388547,23.6788286 46.5388547,26.3907592 L46.5388547,26.4217354 C46.5388547,29.1488503 48.5267939,31.2755748 51.1005466,31.2755748 C52.6566421,31.2755748 53.7198525,30.674577 54.814039,29.5961822 L55.3533883,30.1200434 C54.2130412,31.2449024 52.9803731,32.0001735 51.0698742,32.0001735 C47.9874447,32.0001735 45.7067505,29.5500217 45.7067505,26.4524078" id="Fill-18" fill="#3C3660"></path>
                                    <path d="M74.3281258,29.7087592 C75.388603,29.7087592 76.0287766,29.3343124 76.0287766,28.5231627 L76.0287766,28.4915792 C76.0287766,27.7581735 75.4824425,27.3059826 74.2500781,27.3059826 L71.4728547,27.3059826 L71.4728547,29.7087592 L74.3281258,29.7087592 Z M73.6885597,25.3092364 C74.7493406,25.3092364 75.4201866,24.965462 75.4201866,24.1543124 L75.4201866,24.1227289 C75.4201866,23.405115 74.8583644,22.9993883 73.8443514,22.9993883 L71.4728547,22.9993883 L71.4728547,25.3089328 L73.6885597,25.3089328 L73.6885597,25.3092364 Z M69.1326377,20.8936182 L74.2033102,20.8936182 C75.4517701,20.8936182 76.4348069,21.2367852 77.0585813,21.8608633 C77.5581475,22.3604295 77.8077787,22.9687158 77.8077787,23.7176095 L77.8077787,23.7488894 C77.8077787,24.9818612 77.1524208,25.6675879 76.3716399,26.1045944 C77.6355879,26.5889761 78.4160651,27.3220781 78.4160651,28.7885857 L78.4160651,28.8198655 C78.4160651,30.8169154 76.7931584,31.8154403 74.3281258,31.8154403 L69.1323341,31.8154403 L69.1323341,20.8936182 L69.1326377,20.8936182 Z" id="Fill-19" fill="#3C3660"></path>
                                    <polygon id="Fill-20" fill="#3C3660" points="80.86482 20.8935271 83.2682039 20.8935271 83.2682039 29.6309241 88.7133232 29.6309241 88.7133232 31.8153492 80.86482 31.8153492"></polygon>
                                    <path d="M98.9784208,26.3856876 L98.9784208,26.3541041 C98.9784208,24.4818698 97.605449,22.9218265 95.6703514,22.9218265 C93.7361649,22.9218265 92.3938655,24.45059 92.3938655,26.3228243 L92.3938655,26.3541041 C92.3938655,28.2263384 93.7668373,29.7863818 95.7019349,29.7863818 C97.6370325,29.7863818 98.9784208,28.2579219 98.9784208,26.3856876 M89.8820651,26.3856876 L89.8820651,26.3541041 C89.8820651,23.2495054 92.3316095,20.7058178 95.7019349,20.7058178 C99.072564,20.7058178 101.490525,23.2176182 101.490525,26.3228243 L101.490525,26.3541041 C101.490525,29.4590065 99.0409805,32.0023905 95.6706551,32.0023905 C92.3009371,32.0023905 89.8820651,29.4902863 89.8820651,26.3856876" id="Fill-21" fill="#3C3660"></path>
                                    <path d="M112.707835,26.3856876 L112.707835,26.3541041 C112.707835,24.4818698 111.335167,22.9218265 109.400373,22.9218265 C107.465579,22.9218265 106.123887,24.45059 106.123887,26.3228243 L106.123887,26.3541041 C106.123887,28.2263384 107.496859,29.7863818 109.431957,29.7863818 C111.366143,29.7863818 112.707835,28.2579219 112.707835,26.3856876 M103.612087,26.3856876 L103.612087,26.3541041 C103.612087,23.2495054 106.061024,20.7058178 109.431957,20.7058178 C112.801978,20.7058178 115.220547,23.2176182 115.220547,26.3228243 L115.220547,26.3541041 C115.220547,29.4590065 112.771002,32.0023905 109.400677,32.0023905 C106.030351,32.0023905 103.612087,29.4902863 103.612087,26.3856876" id="Fill-22" fill="#3C3660"></path>
                                    <polygon id="Fill-23" fill="#3C3660" points="117.825761 20.8935271 120.41561 20.8935271 123.285761 25.5120087 126.157432 20.8935271 128.747584 20.8935271 128.747584 31.8153492 126.360295 31.8153492 126.360295 24.6844599 123.285761 29.3497093 123.224113 29.3497093 120.181466 24.7315315 120.181466 31.8150456 117.825458 31.8150456 117.825458 20.8935271"></polygon>
                                    <path d="M131.08777,30.2232972 L132.507813,28.5226464 C133.489939,29.3337961 134.520351,29.8488503 135.768204,29.8488503 C136.750633,29.8488503 137.344039,29.4586117 137.344039,28.8190456 L137.344039,28.7871584 C137.344039,28.1791757 136.969896,27.8669848 135.143822,27.3990022 C132.943909,26.83718 131.524169,26.22859 131.524169,24.0602603 L131.524169,24.0286768 C131.524169,22.0477223 133.115492,20.7367028 135.346685,20.7367028 C136.938312,20.7367028 138.295189,21.2359653 139.403345,22.1251627 L138.154885,23.935141 C137.187944,23.264295 136.236187,22.8585683 135.315406,22.8585683 C134.394625,22.8585683 133.911458,23.2800868 133.911458,23.8106291 L133.911458,23.8416052 C133.911458,24.5592191 134.37944,24.7933623 136.266859,25.2774403 C138.482868,25.8544469 139.731328,26.6504121 139.731328,28.5536226 L139.731328,28.5852061 C139.731328,30.7538395 138.077141,31.970716 135.721132,31.970716 C134.066946,31.9710195 132.397575,31.3937093 131.08777,30.2232972" id="Fill-24" fill="#3C3660"></path>
                                </g>
                            </g>
                        </g>
                    </g>
                </g>
            </g>
        </g>
    </g>
</svg>